# xmcd CD database file
#
# Track frame offsets:
#	150
#	13752
#	29142
#	63627
#	88702
#	99292
#	136402
#	158060
#	172607
#	189655
#
# Disc length: 3004 seconds
#
# Revision: 14
# Processed by: cddbd v1.5.2PL0 Copyright (c) Steve Scherf et al.
# Submitted via: CDex 1.70beta2
#
DISCID=7d0bba0a
DTITLE=何訓田 - 波羅密多
DYEAR=2002
DGENRE=New Age
TTITLE0=雲鐘 (序曲) could bells (prelude)
TTITLE1=波羅密多 paramita, the ultimate
TTITLE2=阿耨多羅三藐三菩提 song of the enlightenment
TTITLE3=琵琶行 song of pipa
TTITLE4=群僧 monks
TTITLE5=般若心經 heart sutra
TTITLE6=塵鼓 earth drums
TTITLE7=白蛇舞 dance of the white snake
TTITLE8=春歌 spring song
TTITLE9=千江月 moons upon a thousand rivers
EXTD=bj YEAR: 2002
EXTT0=
EXTT1=
EXTT2=
EXTT3=
EXTT4=
EXTT5=
EXTT6=
EXTT7=
EXTT8=
EXTT9=
PLAYORDER=
